# xmcd
#
# Track frame offsets:
#	150
#	11035
#	23510
#	39907
#	52077
#	66175
#	77760
#	97602
#	109845
#	129392
#	142250
#	152480
#	169575
#	187050
#	199815
#	210495
#	238437
#	249472
#
# Disc length: 3369
#
# Revision: 1
# Processed by: cddbd v1.5.1PL0 Copyright (c) Steve Scherf et al.
# Submitted via: ExactAudioCopy v0.90b4
# Normalized: r0:DSETVAR1,TDELIM( - )
#
DISCID=f30d2712
DTITLE=Various Artist - Church Street Station - Vol. 1 -
DYEAR=1900
DGENRE=Country
TTITLE0=Danny Davis and Nashville Brass - Trailer - It´s Country Time
TTITLE1=Micky Gilley - Don´t The Girls All Get Prettier At Closing Time
TTITLE2=Dottie West - Leavin´s For Unbelievers
TTITLE3=Johnny Rodriguez - Love Me With All Your Heart
TTITLE4=Sweethearts Of The Rodeo - Chains Of Gold
TTITLE5=George Jones - No Show Jones
TTITLE6=Tammy Wynette - Gospel Medley =Amazing Grace - Will The Circle Be Unbroken - I Saw The Light
TTITLE7=Boxcar Willie - Hobo Heaven
TTITLE8=Jimmy Dean - Bill Bailey
TTITLE9=Tanya Tucker - San Antonio Stroll
TTITLE10=Forester Sisters - Just In Case
TTITLE11=Freddy Fender - Whiskey River
TTITLE12=Denise Price - All Of My Life
TTITLE13=Michey Gilley - Headache Tomorrow, Heartache Tonight
TTITLE14=The Bellamy Brothers - Let Your Love Flow
TTITLE15=Jonny Tillotson - Medley =Heartaches By The Number - Send Me The Pillow You Dream On - It Keeps Right On Hurtin´
TTITLE16=Rex Allen - It´s Over
TTITLE17=Danny Davis and Nashville Brass - Trailer - It´s Country Time
EXTD=
EXTT0=
EXTT1=
EXTT2=
EXTT3=
EXTT4=
EXTT5=
EXTT6=
EXTT7=
EXTT8=
EXTT9=
EXTT10=
EXTT11=
EXTT12=
EXTT13=
EXTT14=
EXTT15=
EXTT16=
EXTT17=
PLAYORDER=
